<svg xmlns="http://www.w3.org/2000/svg" fill-rule="evenodd" stroke-linejoin="round" stroke-miterlimit="2" clip-rule="evenodd" viewBox="0 0 64 64" id="imo"><path fill="none" d="M0 0h64v64H0z"></path><path d="M59 32.001c0-14.902-12.098-27-27-27S5 17.099 5 32a27.01 27.01 0 0 0 3.617 13.5c.559.968.512 1.936-.01 3.136-.564 1.297-1.555 2.747-2.95 4.49A3.001 3.001 0 0 0 8 58.001c5.959 0 8.39-.088 11.98-1.824A26.989 26.989 0 0 0 32 59.001c14.902 0 27-12.098 27-27Zm-2 0c0 13.798-11.202 25-25 25-4.028 0-7.99-.973-11.552-2.829a.998.998 0 0 0-.915-.005C15.966 55.98 13.752 56.001 8 56.001a.999.999 0 0 1-.781-1.625c1.532-1.914 2.603-3.517 3.223-4.942.82-1.888.786-3.41-.093-4.933a25.002 25.002 0 0 1-3.35-12.5c0-13.798 11.203-25 25.001-25 13.798 0 25 11.202 25 25Z"></path><path d="M55 32.001c0-12.694-10.306-23-23-23s-23 10.306-23 23c0 4.037 1.063 8.004 3.08 11.5 1.49 2.58 1.303 5.222-1.011 8.94a1 1 0 0 0 .883 1.527c2.959-.103 4.762-.505 7.563-2.057a1 1 0 0 1 .985.01A23.006 23.006 0 0 0 32 55c12.694 0 23-10.306 23-23Zm-36-4v8a1 1 0 0 0 2 0v-8a1 1 0 0 0-2 0Zm26 3c0-2.208-1.792-4-4-4s-4 1.792-4 4v2c0 2.208 1.792 4 4 4s4-1.792 4-4v-2Zm-22-3v8a1 1 0 0 0 2 0v-5.5a1.5 1.5 0 0 1 3 0v5.5a1 1 0 0 0 2 0v-5.5a1.5 1.5 0 0 1 3 0v5.5a1 1 0 0 0 2 0v-5.5a3.501 3.501 0 0 0-6-2.448 3.488 3.488 0 0 0-2.5-1.052c-.608 0-1.181.156-1.68.429a1 1 0 0 0-1.82.571Zm20 3v2a2 2 0 0 1-4 0v-2a2 2 0 0 1 4 0Zm-23-8a1 1 0 1 1 0 2 1 1 0 0 1 0-2Z" stroke='#504AD0' fill="#504AD0"></path></svg>